<?xml version="1.0" encoding="UTF-8"?>
<svg xmlns="http://www.w3.org/2000/svg" xmlns:xlink="http://www.w3.org/1999/xlink" viewBox="0 0 16 16" width="16px" height="16px">
<g id="surface20442375">
<path style=" stroke:none;fill-rule:nonzero;fill:rgb(83.92157%,0%,5.098039%);fill-opacity:1;" d="M 8 15.398438 C 3.921875 15.398438 0.601562 12.078125 0.601562 8 C 0.601562 3.921875 3.921875 0.601562 8 0.601562 C 12.078125 0.601562 15.398438 3.921875 15.398438 8 C 15.398438 12.078125 12.078125 15.398438 8 15.398438 Z M 8 15.398438 "/>
<path style=" stroke:none;fill-rule:nonzero;fill:rgb(83.92157%,0%,5.098039%);fill-opacity:1;" d="M 8 0.800781 C 11.960938 0.800781 15.199219 4.039062 15.199219 8 C 15.199219 11.960938 11.960938 15.199219 8 15.199219 C 4.039062 15.199219 0.800781 11.960938 0.800781 8 C 0.800781 4.039062 4.039062 0.800781 8 0.800781 M 8 0.398438 C 3.800781 0.398438 0.398438 3.800781 0.398438 8 C 0.398438 12.199219 3.800781 15.601562 8 15.601562 C 12.199219 15.601562 15.601562 12.199219 15.601562 8 C 15.601562 3.800781 12.199219 0.398438 8 0.398438 Z M 8 0.398438 "/>
<path style="fill:none;stroke-width:12.9;stroke-linecap:butt;stroke-linejoin:miter;stroke:rgb(100%,100%,100%);stroke-opacity:1;stroke-miterlimit:10;" d="M 48.165039 86.419922 L 73.108398 111.363281 L 129.839844 54.589844 " transform="matrix(0.0930233,0,0,0.0930233,0,0)"/>
</g>
</svg>
