<?xml version="1.0" encoding="UTF-8" standalone="no"?>
<svg
   viewBox="0 0 50 50"
   width="50px"
   height="50px"
   version="1.1"
   id="svg836"
   sodipodi:docname="icons8-facebook.svg"
   inkscape:version="1.1.1 (3bf5ae0d25, 2021-09-20)"
   xmlns:inkscape="http://www.inkscape.org/namespaces/inkscape"
   xmlns:sodipodi="http://sodipodi.sourceforge.net/DTD/sodipodi-0.dtd"
   xmlns="http://www.w3.org/2000/svg"
   xmlns:svg="http://www.w3.org/2000/svg">
  <defs
     id="defs840" />
  <sodipodi:namedview
     id="namedview838"
     pagecolor="#ffffff"
     bordercolor="#999999"
     borderopacity="1"
     inkscape:pageshadow="0"
     inkscape:pageopacity="0"
     inkscape:pagecheckerboard="0"
     showgrid="false"
     inkscape:zoom="16.16"
     inkscape:cx="25"
     inkscape:cy="25"
     inkscape:window-width="1920"
     inkscape:window-height="1046"
     inkscape:window-x="-11"
     inkscape:window-y="-11"
     inkscape:window-maximized="1"
     inkscape:current-layer="svg836" />
  <g
     id="surface26288362">
    <path
       style=" stroke:none;fill-rule:nonzero;fill:rgb(83.92157%,0%,5.098039%);fill-opacity:1;"
       d="M 41 4 L 9 4 C 6.238281 4 4 6.238281 4 9 L 4 41 C 4 43.761719 6.238281 46 9 46 L 41 46 C 43.761719 46 46 43.761719 46 41 L 46 9 C 46 6.238281 43.761719 4 41 4 Z M 37 19 L 35 19 C 32.859375 19 32 19.5 32 21 L 32 24 L 37 24 L 36 29 L 32 29 L 32 44 L 27 44 L 27 29 L 23 29 L 23 24 L 27 24 L 27 21 C 27 17 29 14 33 14 C 35.898438 14 37 15 37 15 Z M 37 19 "
       id="path833" />
  </g>
</svg>
